<?xml version="1.0" encoding="UTF-8"?>
<svg version="1.1" xmlns="http://www.w3.org/2000/svg" width="512" height="512">
<path d="M0 0 C6.22661821 5.9152873 6.22661821 5.9152873 6.78256226 10.91731262 C6.8871512 18.7099214 5.48872582 25.10702553 2.9765625 32.44921875 C2.4178672 34.15411972 2.4178672 34.15411972 1.84788513 35.89346313 C0.83432449 38.97781427 -0.19426116 42.0566473 -1.22916794 45.13388443 C-2.32748434 48.41373107 -3.40468473 51.70048545 -4.48266602 54.98706055 C-4.92526132 56.33566298 -5.36790379 57.68424993 -5.81059265 59.03282166 C-6.14163278 60.04130315 -6.14163278 60.04130315 -6.47936058 61.070158 C-7.1557481 63.12754259 -7.83451719 65.18412701 -8.51399231 67.24049377 C-12.5714709 79.52721958 -16.4765478 91.85981394 -20.34625244 104.2069397 C-27.16455268 125.95407209 -34.11865995 147.65559304 -41.13562012 169.33917236 C-47.31357397 188.43126846 -53.41763636 207.544815 -59.4375 226.6875 C-66.07935656 247.80754211 -72.84513008 268.88481495 -79.67116547 289.94580841 C-86.42585849 310.78821366 -93.088912 331.65692785 -99.66162109 352.55761719 C-105.9307191 372.48628117 -112.31446116 392.37619914 -118.75567627 412.24972534 C-123.21624479 426.01265836 -127.64853564 439.78275573 -131.96027756 453.59315491 C-132.58449316 455.59223945 -133.20967397 457.59101976 -133.83511353 459.58972168 C-135.79356852 465.85075106 -137.74314637 472.11435334 -139.67773438 478.3828125 C-140.37725884 480.62510776 -141.07711056 482.86730096 -141.77734375 485.109375 C-142.0817186 486.10757263 -142.38609344 487.10577026 -142.69969177 488.13421631 C-147.99298185 504.98010994 -147.99298185 504.98010994 -153.625 509 C-158.34634966 511.16954798 -163.43763458 511.13206069 -168.5 510.375 C-176.13853092 506.62517573 -179.40932569 499.97372012 -182.9296875 492.625 C-183.35218781 491.75629272 -183.77468811 490.88758545 -184.20999146 489.99255371 C-185.60414023 487.12281508 -186.98947093 484.24890884 -188.375 481.375 C-189.35870614 479.34668068 -190.34309263 477.3186912 -191.328125 475.29101562 C-193.37471284 471.07679585 -195.41836038 466.86116926 -197.45996094 462.64453125 C-201.66420691 453.96682326 -205.90390541 445.30650781 -210.14367676 436.64611816 C-212.4282553 431.97847192 -214.71005233 427.30946621 -216.9921875 422.640625 C-220.21976395 416.03851645 -223.44780441 409.43663497 -226.67626953 402.83496094 C-245.51620028 364.31043705 -245.51620028 364.31043705 -250.9707489 353.11701965 C-253.05024971 348.85037865 -255.13679288 344.58753831 -257.24047852 340.33276367 C-261.3774392 331.94273127 -265.35048557 323.52008169 -269.08203125 314.94140625 C-276.64131113 295.24797849 -276.64131113 295.24797849 -291.6875 281.75 C-293.19679545 281.22889425 -294.70989531 280.71875757 -296.2253418 280.21582031 C-301.71955151 278.37366572 -306.84295519 275.97678287 -312.04296875 273.43359375 C-313.03444916 272.95396683 -314.02592957 272.4743399 -315.04745483 271.98017883 C-318.2015438 270.45168112 -321.3512384 268.91443906 -324.5 267.375 C-326.01616409 266.63546082 -326.01616409 266.63546082 -327.56295776 265.88098145 C-333.81789789 262.82888459 -340.06622833 259.76348574 -346.31164551 256.69195557 C-352.09973595 253.84546383 -357.88988503 251.00316361 -363.6796875 248.16015625 C-364.84725586 247.58670471 -366.01482422 247.01325317 -367.21777344 246.42242432 C-378.3892879 240.93621793 -389.56802055 235.46484013 -400.75 230 C-401.66507324 229.55277588 -402.58014648 229.10555176 -403.52294922 228.64477539 C-409.84810003 225.55375905 -416.17390966 222.46409297 -422.5 219.375 C-423.82710999 218.72691376 -423.82710999 218.72691376 -425.18103027 218.06573486 C-429.60138999 215.90714905 -434.0220146 213.74910893 -438.44311523 211.59204102 C-441.8553168 209.92706579 -445.26617518 208.25938464 -448.67602539 206.58959961 C-456.13609939 202.94001747 -463.60360064 199.31149749 -471.11834717 195.77555847 C-474.37477852 194.24264169 -477.62576647 192.69836139 -480.87664795 191.15371704 C-482.39442528 190.43700111 -483.91507403 189.72632864 -485.43878174 189.02230835 C-501.35335986 181.66828027 -501.35335986 181.66828027 -505.5 173.375 C-506.0705589 168.00359551 -506.61153807 162.2279267 -503.75 157.4375 C-497.48647691 150.5237452 -485.69741988 148.32007605 -477.0390625 145.65234375 C-475.9603891 145.31457413 -474.8817157 144.9768045 -473.77035522 144.62879944 C-471.44219892 143.90017477 -469.11328649 143.17396252 -466.78369141 142.44995117 C-461.0706609 140.67382618 -455.36253124 138.88211539 -449.6545639 137.08980179 C-448.32206814 136.67143789 -446.9895125 136.25326469 -445.6568985 135.83527756 C-431.22488173 131.30784226 -416.8310524 126.66490814 -402.4417305 122.00388336 C-382.04928181 115.39922237 -361.63573592 108.86792457 -341.1875 102.4375 C-320.7597175 96.01334609 -300.37068327 89.47730037 -280 82.875 C-258.46740927 75.89611619 -236.91035922 69.00379381 -215.31738281 62.21337891 C-196.68385564 56.35170106 -178.08471032 50.38908832 -159.5 44.375 C-137.24680948 37.17401901 -114.96835463 30.05899942 -92.6496582 23.06298828 C-81.03152918 19.41630221 -69.43467224 15.71612437 -57.87215424 11.89721298 C-55.92370478 11.25446931 -53.97450107 10.61407459 -52.02496338 9.97463989 C-51.38934227 9.76615858 -50.75372116 9.55767727 -50.09883881 9.34287834 C-49.46729134 9.13578806 -48.83574387 8.92869778 -48.18505859 8.71533203 C-44.47739799 7.49952631 -40.77208712 6.27839758 -37.07305908 5.03656006 C-33.69300212 3.90187663 -30.30645377 2.78890198 -26.91796875 1.6796875 C-25.93611099 1.34316162 -24.95425323 1.00663574 -23.94264221 0.65991211 C-16.15241677 -1.85501327 -7.6643983 -3.55847064 0 0 Z M-77.51391602 52.81176758 C-79.10311859 53.32645096 -79.10311859 53.32645096 -80.72442627 53.85153198 C-82.47151886 54.42969162 -82.47151886 54.42969162 -84.25390625 55.01953125 C-86.12184863 55.62728705 -87.9897924 56.23503859 -89.85778999 56.84262466 C-91.86708155 57.49766344 -93.87517037 58.15627575 -95.88296509 58.81588745 C-102.26720423 60.91283723 -108.65889825 62.9868921 -115.04981041 65.06339455 C-117.24904612 65.77820601 -119.44799722 66.49388816 -121.64692688 67.2096405 C-135.34161434 71.66414688 -149.07288222 75.99861133 -162.8125 80.3125 C-183.24105464 86.73415126 -203.6293398 93.27270711 -224 99.875 C-245.53259073 106.85388381 -267.08964078 113.74620619 -288.68261719 120.53662109 C-307.96513096 126.60245515 -327.20998976 132.77912411 -346.4417305 139.00343704 C-369.0403073 146.31707499 -391.67228845 153.51872428 -414.33203125 160.640625 C-415.46667816 160.99753418 -416.60132507 161.35444336 -417.77035522 161.72216797 C-419.857461 162.3784501 -421.94485501 163.03381677 -424.03262329 163.68798828 C-430.88109198 165.84079687 -437.69590331 168.08594238 -444.5 170.375 C-442.01623231 172.97530557 -439.78520082 174.37525306 -436.51171875 175.90625 C-435.00424072 176.61890015 -435.00424072 176.61890015 -433.46630859 177.34594727 C-432.38430176 177.85053467 -431.30229492 178.35512207 -430.1875 178.875 C-427.90161684 179.95549474 -425.61647337 181.03755561 -423.33203125 182.12109375 C-421.60654053 182.93876221 -421.60654053 182.93876221 -419.84619141 183.77294922 C-414.99021257 186.09783855 -410.18084912 188.51109266 -405.375 190.9375 C-397.00353139 195.1546207 -388.57168762 199.22823694 -380.10498047 203.25024414 C-372.66374657 206.79461803 -365.28977294 210.46127675 -357.92951965 214.17034912 C-351.65007093 217.32479143 -345.3303482 220.38101255 -338.98046875 223.390625 C-330.35739588 227.49494615 -321.78549693 231.69324941 -313.23828125 235.953125 C-311.00725238 237.06138096 -308.77613243 238.16945361 -306.54492188 239.27734375 C-303.13620947 240.97014794 -299.72955307 242.66662166 -296.32788086 244.37353516 C-292.97000107 246.05684514 -289.60499529 247.72507027 -286.23828125 249.390625 C-285.2155159 249.90812317 -284.19275055 250.42562134 -283.13899231 250.95880127 C-282.19247299 251.42389099 -281.24595367 251.88898071 -280.27075195 252.36816406 C-279.44299759 252.78132874 -278.61524323 253.19449341 -277.7624054 253.62017822 C-275.07428827 254.51703311 -274.13642631 254.32444256 -271.5 253.375 C-269.64103516 251.96038233 -269.64103516 251.96038233 -267.86871719 250.11286068 C-267.16059049 249.41070712 -266.45246378 248.70855356 -265.72287869 247.98512262 C-264.95244945 247.20595486 -264.18202021 246.42678709 -263.38824463 245.62400818 C-262.56403291 244.80235973 -261.73982118 243.98071128 -260.89063334 243.13416439 C-258.60247161 240.85009555 -256.32118234 238.55940821 -254.04259658 236.26579344 C-251.58453285 233.79479199 -249.11782374 231.33244809 -246.65214539 228.86904907 C-242.38074302 224.59922088 -238.11487418 220.32392783 -233.85269928 216.04488945 C-227.69028323 209.85810742 -221.51961424 203.67961159 -215.34689006 197.50311626 C-205.33264256 187.4823005 -195.3251149 177.45480152 -185.32177734 167.4230957 C-175.60361013 157.6773976 -165.8823016 147.93485074 -156.15673828 138.1965332 C-155.55740306 137.59640982 -154.95806785 136.99628643 -154.34057096 136.37797748 C-151.33390679 133.36739824 -148.32718061 130.35688094 -145.3204236 127.34639442 C-120.37066132 102.36552459 -95.43178953 77.37380681 -70.5 52.375 C-73.32098265 50.96450868 -74.54290411 51.83789358 -77.51391602 52.81176758 Z M-50.78055 78.5157423 C-51.48680366 79.21630471 -52.19305731 79.91686713 -52.92071259 80.6386587 C-53.70445342 81.42121966 -54.48819426 82.20378062 -55.29568481 83.01005554 C-56.12212238 83.83140529 -56.94855995 84.65275504 -57.80004108 85.49899417 C-60.10469019 87.79060052 -62.40703934 90.08448932 -64.70840859 92.37938869 C-66.67993322 94.34455639 -68.65330882 96.30785996 -70.62671675 98.27113619 C-77.12977781 104.74082326 -83.62689586 111.21646135 -90.12245733 117.69367692 C-91.81278115 119.37920875 -93.50320066 121.06464458 -95.19364309 122.75005746 C-105.68101642 133.20646412 -116.16625672 143.66500651 -126.64653206 154.12852764 C-129.07568616 156.55373195 -131.50486681 158.97890965 -133.93408203 161.40405273 C-134.83978352 162.30824168 -134.83978352 162.30824168 -135.76378201 163.23069707 C-145.55156031 173.00145813 -155.35132628 182.76010523 -165.15598072 192.51392844 C-175.21185 202.51808991 -185.25642161 212.533484 -195.29010189 222.55990058 C-200.92806434 228.19319226 -206.57100811 233.82129576 -212.2267189 239.4367733 C-217.04212514 244.21796631 -221.84733348 249.0091131 -226.6393124 253.81379094 C-229.08629884 256.26662468 -231.53796504 258.71426181 -234.00283051 261.1491394 C-236.66864783 263.78753757 -239.31553113 266.44355451 -241.95828247 269.10502625 C-242.74648475 269.87643359 -243.53468703 270.64784094 -244.34677422 271.44262427 C-245.04781238 272.15622542 -245.74885054 272.86982657 -246.47113228 273.60505199 C-247.08459798 274.21678145 -247.69806368 274.8285109 -248.33011925 275.45877761 C-249.75922402 277.37014206 -249.75922402 277.37014206 -249.2600745 279.94878703 C-248.39288834 282.7169082 -247.26788199 285.15924969 -245.9453125 287.7421875 C-245.41164063 288.79535156 -244.87796875 289.84851563 -244.328125 290.93359375 C-243.76609375 292.02800781 -243.2040625 293.12242187 -242.625 294.25 C-238.40954017 302.50441026 -234.31712864 310.80367803 -230.33203125 319.171875 C-224.87434507 330.63078316 -219.30213088 342.03112556 -213.70022583 353.42010498 C-210.85981788 359.19534533 -208.02390974 364.97279524 -205.1875 370.75 C-204.6203981 371.90486908 -204.0532962 373.05973816 -203.4690094 374.24960327 C-198.57370292 384.22030833 -193.6893954 394.1963455 -188.8175354 404.17852783 C-187.98577927 405.88273294 -187.15373118 407.58679559 -186.32138062 409.29071045 C-182.47400558 417.16797521 -178.6365563 425.04860411 -174.89453125 432.9765625 C-174.3730249 434.0795166 -173.85151855 435.1824707 -173.31420898 436.31884766 C-172.39226032 438.27660057 -171.47588024 440.23699144 -170.56665039 442.20068359 C-170.18114014 443.02133301 -169.79562988 443.84198242 -169.3984375 444.6875 C-168.91383057 445.73357422 -168.91383057 445.73357422 -168.41943359 446.80078125 C-167.58380933 448.56092762 -167.58380933 448.56092762 -165.5 449.375 C-162.37112379 439.73042092 -159.24640398 430.08449969 -156.125 420.4375 C-155.88789307 419.70469818 -155.65078613 418.97189636 -155.40649414 418.21688843 C-148.69182907 397.4607907 -142.04241285 376.68615143 -135.5 355.875 C-129.09733145 335.5094771 -122.58211024 315.18301529 -116 294.875 C-109.02106365 273.34242665 -102.1287936 251.78535854 -95.33837891 230.19238281 C-89.68219354 212.21209004 -83.93508359 194.26284793 -78.13238525 176.32946777 C-71.57213977 156.05418732 -65.05089256 135.76734493 -58.62670898 115.44848633 C-57.84324896 112.9707196 -57.05908658 110.49317482 -56.27416992 108.01586914 C-55.18945755 104.59077065 -54.10784773 101.16470936 -53.02734375 97.73828125 C-52.55529762 96.24872673 -52.55529762 96.24872673 -52.07371521 94.7290802 C-50.05786826 88.31743142 -48.22300106 81.87138726 -46.5 75.375 C-48.35733511 75.375 -49.53724132 77.27825266 -50.78055 78.5157423 Z " fill="#fdf020" transform="translate(505.5,1.625)"/>
</svg>
